<svg xmlns="http://www.w3.org/2000/svg" width="78.602" height="104.837" viewBox="0 0 78.602 104.837">
  <g id="Contaminants_chimiques_marins" data-name="Contaminants chimiques marins" transform="translate(-348.339 -325.204)">
    <path id="Tracé_126" data-name="Tracé 126" d="M198.991,348.994v41.153a2.662,2.662,0,0,0,1.329,2.305l35.642,20.577a2.662,2.662,0,0,0,2.661,0l35.64-20.577a2.66,2.66,0,0,0,1.33-2.305V348.994a2.659,2.659,0,0,0-1.33-2.3l-35.64-20.578a2.662,2.662,0,0,0-2.661,0L200.32,346.69A2.661,2.661,0,0,0,198.991,348.994Z" transform="translate(150.348 0.486)" fill="#fff" stroke="#3a65a8" stroke-width="2"/>
    <path id="Tracé_127" data-name="Tracé 127" d="M232.32,354.186h-8.527l-5.562,13.557a2.806,2.806,0,0,0,1.518,3.655H235.2a2.8,2.8,0,0,0,2.594-3.868Z" transform="translate(161.714 12.909)" fill="#fff" opacity="0.5"/>
    <g id="Groupe_202" data-name="Groupe 202">
      <path id="Tracé_128" data-name="Tracé 128" d="M238.643,367.946l-7.669-18.693a8.542,8.542,0,0,1-.641-3.252v-4.941a1.98,1.98,0,0,1,.584-1.409,2.417,2.417,0,0,0,.712-1.717v-.7a.709.709,0,0,0-.708-.708h-9.89a.708.708,0,0,0-.708.708v.7a2.412,2.412,0,0,0,.712,1.717,1.98,1.98,0,0,1,.584,1.409V346a8.542,8.542,0,0,1-.641,3.252l-2.108,5.137,0,.005-5.56,13.551a3.512,3.512,0,0,0,3.249,4.846h18.838a3.512,3.512,0,0,0,3.249-4.846ZM222.285,349.79a9.918,9.918,0,0,0,.748-3.789v-4.941a3.39,3.39,0,0,0-1-2.41,1,1,0,0,1-.3-.708h8.473a1,1,0,0,1-.3.708,3.39,3.39,0,0,0-1,2.41V346a9.94,9.94,0,0,0,.747,3.789l1.711,4.169h-10.8Zm14.848,20.657a2.064,2.064,0,0,1-1.74.929H216.555a2.1,2.1,0,0,1-2.075-2.4h1.167a.708.708,0,1,0,0-1.417H215l.813-1.983H217a.708.708,0,0,0,0-1.417h-.613l.813-1.983h1.229a.708.708,0,0,0,0-1.417h-.648l.814-1.984h1.262a.708.708,0,0,0,0-1.416h-.681l.814-1.984h11.959l5.378,13.108A2.065,2.065,0,0,1,237.133,370.447Z" transform="translate(161.521 12.224)" fill="#3a65a8" stroke="#3a65a8" stroke-miterlimit="10" stroke-width="1"/>
      <path id="Tracé_129" data-name="Tracé 129" d="M234.371,366.832a.709.709,0,1,0-1.312.537l0,.008a.708.708,0,1,0,1.311-.536Z" transform="translate(162.295 13.382)" fill="#3a65a8"/>
      <path id="Tracé_130" data-name="Tracé 130" d="M233.5,364.714l-2.537-6.184a.709.709,0,0,0-1.311.538l2.537,6.183a.708.708,0,0,0,.657.439.7.7,0,0,0,.268-.053A.708.708,0,0,0,233.5,364.714Z" transform="translate(162.163 13.06)" fill="#3a65a8"/>
    </g>
    <g id="Groupe_130" data-name="Groupe 130" transform="translate(371.288 396.885)">
      <circle id="Ellipse_38" data-name="Ellipse 38" cx="16.078" cy="16.078" r="16.078" fill="#fff" stroke="#3a65a8" stroke-miterlimit="10" stroke-width="2"/>
      <g id="Groupe_129" data-name="Groupe 129" transform="translate(7.399 9.452)">
        <g id="Groupe_128" data-name="Groupe 128" transform="translate(0 3.906)">
          <path id="Tracé_92" data-name="Tracé 92" d="M385.64,385.8c-1.684,1.447-3.015,2.59-6.626.55-4.772-2.695-7.007-.775-8.8.768a1,1,0,0,0-.117,1.387.952.952,0,0,0,1.36.12c1.684-1.447,3.015-2.591,6.626-.55a8.835,8.835,0,0,0,4.3,1.35,6.72,6.72,0,0,0,4.5-2.116,1,1,0,0,0,.117-1.388A.95.95,0,0,0,385.64,385.8Zm0,4.924c-1.684,1.448-3.015,2.592-6.626.55-4.772-2.695-7.007-.775-8.8.768a1,1,0,0,0-.117,1.388.952.952,0,0,0,1.36.119c1.684-1.447,3.015-2.591,6.626-.55a8.82,8.82,0,0,0,4.3,1.35,6.714,6.714,0,0,0,4.5-2.116,1,1,0,0,0,.117-1.388A.953.953,0,0,0,385.64,390.722Z" transform="translate(-369.868 -384.999)" fill="#3a65a8"/>
        </g>
        <rect id="Rectangle_42" data-name="Rectangle 42" width="17.357" height="2.051" rx="0.717" transform="translate(0)" fill="#3a65a8"/>
      </g>
    </g>
  </g>
</svg>
