<svg xmlns="http://www.w3.org/2000/svg" width="78.24" height="104.813" viewBox="0 0 78.24 104.813">
  <g id="Eau_potable" data-name="Eau potable" transform="translate(-283.001 -1587.962)">
    <path id="Tracé_93" data-name="Tracé 93" d="M785.405,643.579v40.96a2.648,2.648,0,0,0,1.323,2.293L822.2,707.312a2.647,2.647,0,0,0,2.647,0l35.473-20.479a2.647,2.647,0,0,0,1.324-2.293v-40.96a2.647,2.647,0,0,0-1.324-2.293l-35.473-20.481a2.646,2.646,0,0,0-2.647,0l-35.473,20.481A2.648,2.648,0,0,0,785.405,643.579Z" transform="translate(-501.404 968.55)" fill="#fff" stroke="#a8056d" stroke-width="2"/>
    <circle id="Ellipse_39" data-name="Ellipse 39" cx="15.707" cy="15.707" r="15.707" transform="translate(305.67 1660.385)" fill="#fff" stroke="#a8056d" stroke-miterlimit="10" stroke-width="1.949"/>
    <g id="Groupe_132" data-name="Groupe 132" transform="translate(312.607 1666.985)">
      <path id="Tracé_94" data-name="Tracé 94" d="M822.816,682.127a.351.351,0,0,0-.239-.142l-2.089-.321a6.893,6.893,0,0,0-.469-1.118c.138-.191.343-.46.616-.805s.469-.6.583-.759a.448.448,0,0,0,.09-.264.364.364,0,0,0-.08-.251,15.652,15.652,0,0,0-1.883-1.942.444.444,0,0,0-.285-.113.377.377,0,0,0-.275.1l-1.621,1.222a7.017,7.017,0,0,0-1.027-.423l-.321-2.1a.333.333,0,0,0-.13-.245.428.428,0,0,0-.281-.1h-2.535a.383.383,0,0,0-.41.32,18.324,18.324,0,0,0-.332,2.124,6.635,6.635,0,0,0-1.039.434l-1.575-1.222a.489.489,0,0,0-.3-.113q-.25,0-1.079.817a11.443,11.443,0,0,0-1.125,1.227.487.487,0,0,0-.1.262.432.432,0,0,0,.113.275q.765.924,1.222,1.575a5.7,5.7,0,0,0-.446,1.052l-2.124.32a.34.34,0,0,0-.216.148.44.44,0,0,0-.092.264v2.535a.428.428,0,0,0,.092.268.359.359,0,0,0,.239.143l2.089.308a5.719,5.719,0,0,0,.469,1.129c-.136.191-.343.46-.616.805s-.469.6-.583.76a.451.451,0,0,0-.011.526,15.219,15.219,0,0,0,1.885,1.919.4.4,0,0,0,.285.125.417.417,0,0,0,.287-.1l1.609-1.222a7.12,7.12,0,0,0,1.029.423l.319,2.1a.338.338,0,0,0,.13.245.427.427,0,0,0,.281.1h2.535a.384.384,0,0,0,.411-.32,18.757,18.757,0,0,0,.331-2.124,6.63,6.63,0,0,0,1.039-.434l1.576,1.234a.562.562,0,0,0,.3.1q.252,0,1.073-.811a11.861,11.861,0,0,0,1.131-1.232.384.384,0,0,0,.1-.262.442.442,0,0,0-.113-.287q-.823-1-1.222-1.575a7.4,7.4,0,0,0,.446-1.04l2.112-.32a.342.342,0,0,0,.228-.148.439.439,0,0,0,.092-.264v-2.535A.427.427,0,0,0,822.816,682.127Zm-6.612,3.58a2.92,2.92,0,1,1,.857-2.066A2.813,2.813,0,0,1,816.2,685.707Z" transform="translate(-805.367 -674.87)" fill="#a8056d"/>
    </g>
    <g id="Groupe_203" data-name="Groupe 203" transform="translate(-66.338 1263.759)">
      <path id="Tracé_128" data-name="Tracé 128" d="M238.643,367.946l-7.669-18.693a8.542,8.542,0,0,1-.641-3.252v-4.941a1.98,1.98,0,0,1,.584-1.409,2.417,2.417,0,0,0,.712-1.717v-.7a.709.709,0,0,0-.708-.708h-9.89a.708.708,0,0,0-.708.708v.7a2.412,2.412,0,0,0,.712,1.717,1.98,1.98,0,0,1,.584,1.409V346a8.542,8.542,0,0,1-.641,3.252l-2.108,5.137,0,.005-5.56,13.551a3.512,3.512,0,0,0,3.249,4.846h18.838a3.512,3.512,0,0,0,3.249-4.846ZM222.285,349.79a9.918,9.918,0,0,0,.748-3.789v-4.941a3.39,3.39,0,0,0-1-2.41,1,1,0,0,1-.3-.708h8.473a1,1,0,0,1-.3.708,3.39,3.39,0,0,0-1,2.41V346a9.94,9.94,0,0,0,.747,3.789l1.711,4.169h-10.8Zm14.848,20.657a2.064,2.064,0,0,1-1.74.929H216.555a2.1,2.1,0,0,1-2.075-2.4h1.167a.708.708,0,1,0,0-1.417H215l.813-1.983H217a.708.708,0,0,0,0-1.417h-.613l.813-1.983h1.229a.708.708,0,0,0,0-1.417h-.648l.814-1.984h1.262a.708.708,0,0,0,0-1.416h-.681l.814-1.984h11.959l5.378,13.108A2.065,2.065,0,0,1,237.133,370.447Z" transform="translate(161.521 12.224)" fill="#a8056d" stroke="#a8056d" stroke-miterlimit="10" stroke-width="1"/>
      <path id="Tracé_129" data-name="Tracé 129" d="M234.371,366.832a.709.709,0,1,0-1.312.537l0,.008a.708.708,0,1,0,1.311-.536Z" transform="translate(162.295 13.382)" fill="#a8056d"/>
      <path id="Tracé_130" data-name="Tracé 130" d="M233.5,364.714l-2.537-6.184a.709.709,0,0,0-1.311.538l2.537,6.183a.708.708,0,0,0,.657.439.7.7,0,0,0,.268-.053A.708.708,0,0,0,233.5,364.714Z" transform="translate(162.163 13.06)" fill="#a8056d"/>
    </g>
  </g>
</svg>
