<svg xmlns="http://www.w3.org/2000/svg" width="78.24" height="104.813" viewBox="0 0 78.24 104.813">
  <g id="Indicateurs_de_services" data-name="Indicateurs de services" transform="translate(-784.405 -619.412)">
    <path id="Tracé_93" data-name="Tracé 93" d="M785.405,643.579v40.96a2.648,2.648,0,0,0,1.323,2.293L822.2,707.312a2.647,2.647,0,0,0,2.647,0l35.473-20.479a2.647,2.647,0,0,0,1.324-2.293v-40.96a2.647,2.647,0,0,0-1.324-2.293l-35.473-20.481a2.646,2.646,0,0,0-2.647,0l-35.473,20.481A2.648,2.648,0,0,0,785.405,643.579Z" fill="#fff" stroke="#a8056d" stroke-width="2"/>
    <circle id="Ellipse_39" data-name="Ellipse 39" cx="15.707" cy="15.707" r="15.707" transform="translate(807.074 691.836)" fill="#fff" stroke="#a8056d" stroke-miterlimit="10" stroke-width="1.949"/>
    <g id="Groupe_132" data-name="Groupe 132" transform="translate(814.011 698.435)">
      <path id="Tracé_94" data-name="Tracé 94" d="M822.816,682.127a.351.351,0,0,0-.239-.142l-2.089-.321a6.893,6.893,0,0,0-.469-1.118c.138-.191.343-.46.616-.805s.469-.6.583-.759a.448.448,0,0,0,.09-.264.364.364,0,0,0-.08-.251,15.652,15.652,0,0,0-1.883-1.942.444.444,0,0,0-.285-.113.377.377,0,0,0-.275.1l-1.621,1.222a7.017,7.017,0,0,0-1.027-.423l-.321-2.1a.333.333,0,0,0-.13-.245.428.428,0,0,0-.281-.1h-2.535a.383.383,0,0,0-.41.32,18.324,18.324,0,0,0-.332,2.124,6.635,6.635,0,0,0-1.039.434l-1.575-1.222a.489.489,0,0,0-.3-.113q-.25,0-1.079.817a11.443,11.443,0,0,0-1.125,1.227.487.487,0,0,0-.1.262.432.432,0,0,0,.113.275q.765.924,1.222,1.575a5.7,5.7,0,0,0-.446,1.052l-2.124.32a.34.34,0,0,0-.216.148.44.44,0,0,0-.092.264v2.535a.428.428,0,0,0,.092.268.359.359,0,0,0,.239.143l2.089.308a5.719,5.719,0,0,0,.469,1.129c-.136.191-.343.46-.616.805s-.469.6-.583.76a.451.451,0,0,0-.011.526,15.219,15.219,0,0,0,1.885,1.919.4.4,0,0,0,.285.125.417.417,0,0,0,.287-.1l1.609-1.222a7.12,7.12,0,0,0,1.029.423l.319,2.1a.338.338,0,0,0,.13.245.427.427,0,0,0,.281.1h2.535a.384.384,0,0,0,.411-.32,18.757,18.757,0,0,0,.331-2.124,6.63,6.63,0,0,0,1.039-.434l1.576,1.234a.562.562,0,0,0,.3.1q.252,0,1.073-.811a11.861,11.861,0,0,0,1.131-1.232.384.384,0,0,0,.1-.262.442.442,0,0,0-.113-.287q-.823-1-1.222-1.575a7.4,7.4,0,0,0,.446-1.04l2.112-.32a.342.342,0,0,0,.228-.148.439.439,0,0,0,.092-.264v-2.535A.427.427,0,0,0,822.816,682.127Zm-6.612,3.58a2.92,2.92,0,1,1,.857-2.066A2.813,2.813,0,0,1,816.2,685.707Z" transform="translate(-805.367 -674.87)" fill="#a8056d"/>
    </g>
    <path id="Tracé_95" data-name="Tracé 95" d="M829.3,649.5h-6v-1.576a1.087,1.087,0,0,0-1.088-1.088H820.27v-4.354a1.087,1.087,0,0,0-1.088-1.086h-4.111V638.5h7.136a1.087,1.087,0,1,0,0-2.174H805.663a1.087,1.087,0,1,0,0,2.174H812.9v2.895h-4.207a1.087,1.087,0,0,0-1.088,1.086v4.354h-1.937a1.088,1.088,0,0,0-1.088,1.088V649.5h-6a1.088,1.088,0,0,0-1.088,1.088v10.493a1.087,1.087,0,0,0,1.088,1.088h6v2.3a1.087,1.087,0,0,0,1.088,1.086h16.544a1.086,1.086,0,0,0,1.088-1.086v-2.3h6a1.087,1.087,0,0,0,1.088-1.088V650.583A1.088,1.088,0,0,0,829.3,649.5Zm-19.522-5.93h8.319v3.266h-8.319ZM799.66,659.989v-8.32h4.916v8.32Zm21.46,3.387H806.75v-14.37H821.12v14.37Zm7.091-3.387h-4.917v-8.32h4.917Z" transform="translate(9.589 9.745)" fill="#a8056d"/>
  </g>
</svg>
