<svg xmlns="http://www.w3.org/2000/svg" width="77.999" height="104.837" viewBox="0 0 77.999 104.837">
  <g id="Poisson" transform="translate(-564.001 -1306.963)">
    <g id="Groupe_151" data-name="Groupe 151" transform="translate(366.01 785.707)">
      <path id="Tracé_113" data-name="Tracé 113" d="M198.991,545.349V586.18a2.64,2.64,0,0,0,1.319,2.286l35.361,20.415a2.64,2.64,0,0,0,2.64,0l35.36-20.415a2.638,2.638,0,0,0,1.32-2.286V545.349a2.638,2.638,0,0,0-1.32-2.286l-35.36-20.416a2.64,2.64,0,0,0-2.64,0l-35.361,20.416A2.64,2.64,0,0,0,198.991,545.349Z" transform="translate(0 0)" fill="#fff" stroke="#21b7ef" stroke-width="2"/>
      <g id="Groupe_148" data-name="Groupe 148" transform="translate(218.018 550.427)">
        <path id="Tracé_114" data-name="Tracé 114" d="M241.3,550.438a.881.881,0,1,0,.881.881A.883.883,0,0,0,241.3,550.438Z" transform="translate(-204.485 -538.173)" fill="#21b7ef" stroke="#21b7ef" stroke-miterlimit="10" stroke-width="0.5"/>
        <path id="Tracé_115" data-name="Tracé 115" d="M246.549,548.209a21.743,21.743,0,0,0-12.916-5.2,7.543,7.543,0,0,0-6.337-3.472,2.053,2.053,0,0,0-2.051,2.051v3.141a35.727,35.727,0,0,0-8.7,6.282,7.526,7.526,0,0,0-7.368-6.006.684.684,0,0,0-.683.684,7.541,7.541,0,0,0,4.378,6.836,7.536,7.536,0,0,0-4.378,6.834.684.684,0,0,0,.684.684,7.526,7.526,0,0,0,7.367-6.006,35.728,35.728,0,0,0,8.7,6.283v3.141a2.052,2.052,0,0,0,2.051,2.05,7.546,7.546,0,0,0,6.337-3.471A21.8,21.8,0,0,0,246.6,556.8a5.006,5.006,0,0,0-.051-8.589Zm-19.253-7.3a6.169,6.169,0,0,1,4.587,2.054,14.853,14.853,0,0,0-5.27,1.164v-2.535A.684.684,0,0,1,227.3,540.908ZM209.9,546.419a6.156,6.156,0,0,1,5.385,5.384,6.156,6.156,0,0,1-5.385-5.384Zm0,12.219a6.159,6.159,0,0,1,5.385-5.385,6.159,6.159,0,0,1-5.385,5.385Zm17.393,5.511a.684.684,0,0,1-.683-.683v-2.535a14.9,14.9,0,0,0,5.27,1.164A6.173,6.173,0,0,1,227.3,564.149Zm18.37-8.349a17.95,17.95,0,0,1-5.367,3.315,7.444,7.444,0,0,1-3.346-4.812.684.684,0,1,0-1.335.295,8.926,8.926,0,0,0,3.116,5.089A21.737,21.737,0,0,1,233.2,560.7h0c-.369.019-.745.029-1.117.029-5.345,0-11.343-4.4-15.119-8.2,3.771-3.8,9.762-8.2,15.119-8.2.375,0,.75.009,1.117.029a21.707,21.707,0,0,1,5.54,1.014,8.832,8.832,0,0,0-2.588,3.43.684.684,0,1,0,1.257.537,7.332,7.332,0,0,1,2.895-3.4,18,18,0,0,1,5.318,3.271,5.5,5.5,0,0,1,2.02,3.317A5.438,5.438,0,0,1,245.667,555.8Z" transform="translate(-208.494 -539.541)" fill="#21b7ef" stroke="#21b7ef" stroke-miterlimit="10" stroke-width="0.5"/>
        <path id="Tracé_116" data-name="Tracé 116" d="M233.522,549.515a.881.881,0,1,0,.88.88A.882.882,0,0,0,233.522,549.515Z" transform="translate(-205.462 -538.289)" fill="#21b7ef" stroke="#21b7ef" stroke-miterlimit="10" stroke-width="0.5"/>
      </g>
      <g id="Groupe_150" data-name="Groupe 150" transform="translate(221.153 592.962)">
        <circle id="Ellipse_42" data-name="Ellipse 42" cx="16.066" cy="16.066" r="16.066" fill="#fff" stroke="#21b7ef" stroke-miterlimit="10" stroke-width="2"/>
        <g id="Groupe_149" data-name="Groupe 149" transform="translate(10.262 6.105)">
          <path id="Tracé_117" data-name="Tracé 117" d="M227.142,576.24l-4.685,8.171a5.8,5.8,0,1,0,10.069,0l-4.685-8.171A.4.4,0,0,0,227.142,576.24Z" transform="translate(-221.689 -576.037)" fill="#21b7ef"/>
        </g>
      </g>
    </g>
  </g>
</svg>
